<svg width="43" height="41" viewBox="0 0 43 41" fill="none" xmlns="http://www.w3.org/2000/svg">
<g clip-path="url(#clip0_2_18)">
<path d="M23.875 21.208C23.977 21.339 24.02 21.528 23.991 21.703L23.715 22.911C23.686 23.1 23.555 23.246 23.396 23.333L22.278 23.857C22.118 23.944 21.915 23.944 21.755 23.857L20.637 23.333C20.477 23.246 20.347 23.1 20.318 22.911L20.042 21.703C20.013 21.528 20.057 21.339 20.158 21.208L20.942 20.233C21.043 20.087 21.218 20 21.406 20H22.626C22.815 20 22.989 20.087 23.091 20.233L23.875 21.208Z" fill="#0277BD"/>
<path d="M23.312 12.33L23.36 12.705C23.494 13.742 23.59 14.79 23.686 15.827C23.724 16.24 23.763 16.644 23.791 17.057C23.81 17.374 24.165 17.537 24.424 17.355C24.75 17.115 25.086 16.875 25.431 16.644C26.294 16.058 27.147 15.472 28.029 14.905L28.355 14.703C26.984 13.454 25.239 12.599 23.312 12.33ZM23.312 12.33L23.36 12.705C23.494 13.742 23.59 14.79 23.686 15.827C23.724 16.24 23.763 16.644 23.791 17.057C23.81 17.374 24.165 17.537 24.424 17.355C24.75 17.115 25.086 16.875 25.431 16.644C26.294 16.058 27.147 15.472 28.029 14.905L28.355 14.703C26.984 13.454 25.239 12.599 23.312 12.33ZM23.312 12.33L23.36 12.705C23.494 13.742 23.59 14.79 23.686 15.827C23.724 16.24 23.763 16.644 23.791 17.057C23.81 17.374 24.165 17.537 24.424 17.355C24.75 17.115 25.086 16.875 25.431 16.644C26.294 16.058 27.147 15.472 28.029 14.905L28.355 14.703C26.984 13.454 25.239 12.599 23.312 12.33ZM23.312 12.33L23.36 12.705C23.494 13.742 23.59 14.79 23.686 15.827C23.724 16.24 23.763 16.644 23.791 17.057C23.81 17.374 24.165 17.537 24.424 17.355C24.75 17.115 25.086 16.875 25.431 16.644C26.294 16.058 27.147 15.472 28.029 14.905L28.355 14.703C26.984 13.454 25.239 12.599 23.312 12.33ZM23.312 12.33L23.36 12.705C23.494 13.742 23.59 14.79 23.686 15.827C23.724 16.24 23.763 16.644 23.791 17.057C23.81 17.374 24.165 17.537 24.424 17.355C24.75 17.115 25.086 16.875 25.431 16.644C26.294 16.058 27.147 15.472 28.029 14.905L28.355 14.703C26.984 13.454 25.239 12.599 23.312 12.33ZM30.119 16.835L29.86 17.114C29.141 17.883 28.403 18.622 27.664 19.362C27.194 19.842 26.686 20.303 26.197 20.774C26.849 20.937 27.501 21.11 28.153 21.302C29.16 21.59 30.157 21.869 31.154 22.195L31.509 22.31C31.519 22.156 31.519 21.993 31.519 21.83C31.519 19.996 31.011 18.286 30.119 16.835ZM30.119 16.835L29.86 17.114C29.141 17.883 28.403 18.622 27.664 19.362C27.194 19.842 26.686 20.303 26.197 20.774C26.849 20.937 27.501 21.11 28.153 21.302C29.16 21.59 30.157 21.869 31.154 22.195L31.509 22.31C31.519 22.156 31.519 21.993 31.519 21.83C31.519 19.996 31.011 18.286 30.119 16.835ZM23.312 12.33L23.36 12.705C23.494 13.742 23.59 14.79 23.686 15.827C23.724 16.24 23.763 16.644 23.791 17.057C23.81 17.374 24.165 17.537 24.424 17.355C24.75 17.115 25.086 16.875 25.431 16.644C26.294 16.058 27.147 15.472 28.029 14.905L28.355 14.703C26.984 13.454 25.239 12.599 23.312 12.33ZM23.312 12.33L23.36 12.705C23.494 13.742 23.59 14.79 23.686 15.827C23.724 16.24 23.763 16.644 23.791 17.057C23.81 17.374 24.165 17.537 24.424 17.355C24.75 17.115 25.086 16.875 25.431 16.644C26.294 16.058 27.147 15.472 28.029 14.905L28.355 14.703C26.984 13.454 25.239 12.599 23.312 12.33ZM30.627 25.02C29.582 24.953 28.546 24.857 27.501 24.761C27.05 24.723 26.609 24.675 26.159 24.626C25.871 24.588 25.641 24.876 25.747 25.154C25.91 25.586 26.063 26.019 26.217 26.461C26.553 27.441 26.898 28.43 27.214 29.429L27.319 29.775C28.987 28.632 30.282 26.98 30.962 25.039L30.627 25.02ZM30.119 16.835L29.86 17.114C29.141 17.883 28.403 18.622 27.664 19.362C27.194 19.842 26.686 20.303 26.197 20.774C26.849 20.937 27.501 21.11 28.153 21.302C29.16 21.59 30.157 21.869 31.154 22.195L31.509 22.31C31.519 22.156 31.519 21.993 31.519 21.83C31.519 19.996 31.011 18.286 30.119 16.835ZM30.119 16.835L29.86 17.114C29.141 17.883 28.403 18.622 27.664 19.362C27.194 19.842 26.686 20.303 26.197 20.774C26.849 20.937 27.501 21.11 28.153 21.302C29.16 21.59 30.157 21.869 31.154 22.195L31.509 22.31C31.519 22.156 31.519 21.993 31.519 21.83C31.519 19.996 31.011 18.286 30.119 16.835ZM30.627 25.02C29.582 24.953 28.546 24.857 27.501 24.761C27.05 24.723 26.609 24.675 26.159 24.626C25.871 24.588 25.641 24.876 25.747 25.154C25.91 25.586 26.063 26.019 26.217 26.461C26.553 27.441 26.898 28.43 27.214 29.429L27.319 29.775C28.987 28.632 30.282 26.98 30.962 25.039L30.627 25.02ZM23.312 12.33L23.36 12.705C23.494 13.742 23.59 14.79 23.686 15.827C23.724 16.24 23.763 16.644 23.791 17.057C23.81 17.374 24.165 17.537 24.424 17.355C24.75 17.115 25.086 16.875 25.431 16.644C26.294 16.058 27.147 15.472 28.029 14.905L28.355 14.703C26.984 13.454 25.239 12.599 23.312 12.33ZM23.312 12.33L23.36 12.705C23.494 13.742 23.59 14.79 23.686 15.827C23.724 16.24 23.763 16.644 23.791 17.057C23.81 17.374 24.165 17.537 24.424 17.355C24.75 17.115 25.086 16.875 25.431 16.644C26.294 16.058 27.147 15.472 28.029 14.905L28.355 14.703C26.984 13.454 25.239 12.599 23.312 12.33ZM30.627 25.02C29.582 24.953 28.546 24.857 27.501 24.761C27.05 24.723 26.609 24.675 26.159 24.626C25.871 24.588 25.641 24.876 25.747 25.154C25.91 25.586 26.063 26.019 26.217 26.461C26.553 27.441 26.898 28.43 27.214 29.429L27.319 29.775C28.987 28.632 30.282 26.98 30.962 25.039L30.627 25.02ZM30.119 16.835L29.86 17.114C29.141 17.883 28.403 18.622 27.664 19.362C27.194 19.842 26.686 20.303 26.197 20.774C26.849 20.937 27.501 21.11 28.153 21.302C29.16 21.59 30.157 21.869 31.154 22.195L31.509 22.31C31.519 22.156 31.519 21.993 31.519 21.83C31.519 19.996 31.011 18.286 30.119 16.835ZM30.119 16.835L29.86 17.114C29.141 17.883 28.403 18.622 27.664 19.362C27.194 19.842 26.686 20.303 26.197 20.774C26.849 20.937 27.501 21.11 28.153 21.302C29.16 21.59 30.157 21.869 31.154 22.195L31.509 22.31C31.519 22.156 31.519 21.993 31.519 21.83C31.519 19.996 31.011 18.286 30.119 16.835ZM30.627 25.02C29.582 24.953 28.546 24.857 27.501 24.761C27.05 24.723 26.609 24.675 26.159 24.626C25.871 24.588 25.641 24.876 25.747 25.154C25.91 25.586 26.063 26.019 26.217 26.461C26.553 27.441 26.898 28.43 27.214 29.429L27.319 29.775C28.987 28.632 30.282 26.98 30.962 25.039L30.627 25.02ZM23.312 12.33L23.36 12.705C23.494 13.742 23.59 14.79 23.686 15.827C23.724 16.24 23.763 16.644 23.791 17.057C23.81 17.374 24.165 17.537 24.424 17.355C24.75 17.115 25.086 16.875 25.431 16.644C26.294 16.058 27.147 15.472 28.029 14.905L28.355 14.703C26.984 13.454 25.239 12.599 23.312 12.33ZM24.606 30.62C24.05 29.736 23.532 28.824 23.014 27.921C22.784 27.527 22.563 27.133 22.352 26.73C22.199 26.451 21.805 26.451 21.652 26.73C21.431 27.143 21.201 27.547 20.962 27.94C20.435 28.843 19.907 29.746 19.351 30.63L19.111 31.014C20.003 31.293 20.952 31.437 21.93 31.437C22.937 31.437 23.915 31.283 24.826 30.985L24.606 30.62ZM23.312 12.33L23.36 12.705C23.494 13.742 23.59 14.79 23.686 15.827C23.724 16.24 23.763 16.644 23.791 17.057C23.81 17.374 24.165 17.537 24.424 17.355C24.75 17.115 25.086 16.875 25.431 16.644C26.294 16.058 27.147 15.472 28.029 14.905L28.355 14.703C26.984 13.454 25.239 12.599 23.312 12.33ZM30.627 25.02C29.582 24.953 28.546 24.857 27.501 24.761C27.05 24.723 26.609 24.675 26.159 24.626C25.871 24.588 25.641 24.876 25.747 25.154C25.91 25.586 26.063 26.019 26.217 26.461C26.553 27.441 26.898 28.43 27.214 29.429L27.319 29.775C28.987 28.632 30.282 26.98 30.962 25.039L30.627 25.02ZM30.119 16.835L29.86 17.114C29.141 17.883 28.403 18.622 27.664 19.362C27.194 19.842 26.686 20.303 26.197 20.774C26.849 20.937 27.501 21.11 28.153 21.302C29.16 21.59 30.157 21.869 31.154 22.195L31.509 22.31C31.519 22.156 31.519 21.993 31.519 21.83C31.519 19.996 31.011 18.286 30.119 16.835ZM30.119 16.835L29.86 17.114C29.141 17.883 28.403 18.622 27.664 19.362C27.194 19.842 26.686 20.303 26.197 20.774C26.849 20.937 27.501 21.11 28.153 21.302C29.16 21.59 30.157 21.869 31.154 22.195L31.509 22.31C31.519 22.156 31.519 21.993 31.519 21.83C31.519 19.996 31.011 18.286 30.119 16.835ZM30.627 25.02C29.582 24.953 28.546 24.857 27.501 24.761C27.05 24.723 26.609 24.675 26.159 24.626C25.871 24.588 25.641 24.876 25.747 25.154C25.91 25.586 26.063 26.019 26.217 26.461C26.553 27.441 26.898 28.43 27.214 29.429L27.319 29.775C28.987 28.632 30.282 26.98 30.962 25.039L30.627 25.02ZM23.312 12.33L23.36 12.705C23.494 13.742 23.59 14.79 23.686 15.827C23.724 16.24 23.763 16.644 23.791 17.057C23.81 17.374 24.165 17.537 24.424 17.355C24.75 17.115 25.086 16.875 25.431 16.644C26.294 16.058 27.147 15.472 28.029 14.905L28.355 14.703C26.984 13.454 25.239 12.599 23.312 12.33ZM24.606 30.62C24.05 29.736 23.532 28.824 23.014 27.921C22.784 27.527 22.563 27.133 22.352 26.73C22.199 26.451 21.805 26.451 21.652 26.73C21.431 27.143 21.201 27.547 20.962 27.94C20.435 28.843 19.907 29.746 19.351 30.63L19.111 31.014C20.003 31.293 20.952 31.437 21.93 31.437C22.937 31.437 23.915 31.283 24.826 30.985L24.606 30.62ZM17.875 24.492C17.424 24.55 16.983 24.617 16.533 24.665C15.488 24.79 14.462 24.915 13.417 25.011L12.899 25.059C13.599 27.019 14.922 28.69 16.619 29.824L16.753 29.42C17.079 28.421 17.424 27.441 17.779 26.452C17.942 25.972 18.115 25.501 18.297 25.021C18.412 24.741 18.172 24.444 17.875 24.492ZM24.606 30.62C24.05 29.736 23.532 28.824 23.014 27.921C22.784 27.527 22.563 27.133 22.352 26.73C22.199 26.451 21.805 26.451 21.652 26.73C21.431 27.143 21.201 27.547 20.962 27.94C20.435 28.843 19.907 29.746 19.351 30.63L19.111 31.014C20.003 31.293 20.952 31.437 21.93 31.437C22.937 31.437 23.915 31.283 24.826 30.985L24.606 30.62ZM23.312 12.33L23.36 12.705C23.494 13.742 23.59 14.79 23.686 15.827C23.724 16.24 23.763 16.644 23.791 17.057C23.81 17.374 24.165 17.537 24.424 17.355C24.75 17.115 25.086 16.875 25.431 16.644C26.294 16.058 27.147 15.472 28.029 14.905L28.355 14.703C26.984 13.454 25.239 12.599 23.312 12.33ZM30.627 25.02C29.582 24.953 28.546 24.857 27.501 24.761C27.05 24.723 26.609 24.675 26.159 24.626C25.871 24.588 25.641 24.876 25.747 25.154C25.91 25.586 26.063 26.019 26.217 26.461C26.553 27.441 26.898 28.43 27.214 29.429L27.319 29.775C28.987 28.632 30.282 26.98 30.962 25.039L30.627 25.02ZM30.119 16.835L29.86 17.114C29.141 17.883 28.403 18.622 27.664 19.362C27.194 19.842 26.686 20.303 26.197 20.774C26.849 20.937 27.501 21.11 28.153 21.302C29.16 21.59 30.157 21.869 31.154 22.195L31.509 22.31C31.519 22.156 31.519 21.993 31.519 21.83C31.519 19.996 31.011 18.286 30.119 16.835ZM30.119 16.835L29.86 17.114C29.141 17.883 28.403 18.622 27.664 19.362C27.194 19.842 26.686 20.303 26.197 20.774C26.849 20.937 27.501 21.11 28.153 21.302C29.16 21.59 30.157 21.869 31.154 22.195L31.509 22.31C31.519 22.156 31.519 21.993 31.519 21.83C31.519 19.996 31.011 18.286 30.119 16.835ZM30.627 25.02C29.582 24.953 28.546 24.857 27.501 24.761C27.05 24.723 26.609 24.675 26.159 24.626C25.871 24.588 25.641 24.876 25.747 25.154C25.91 25.586 26.063 26.019 26.217 26.461C26.553 27.441 26.898 28.43 27.214 29.429L27.319 29.775C28.987 28.632 30.282 26.98 30.962 25.039L30.627 25.02ZM23.312 12.33L23.36 12.705C23.494 13.742 23.59 14.79 23.686 15.827C23.724 16.24 23.763 16.644 23.791 17.057C23.81 17.374 24.165 17.537 24.424 17.355C24.75 17.115 25.086 16.875 25.431 16.644C26.294 16.058 27.147 15.472 28.029 14.905L28.355 14.703C26.984 13.454 25.239 12.599 23.312 12.33ZM24.606 30.62C24.05 29.736 23.532 28.824 23.014 27.921C22.784 27.527 22.563 27.133 22.352 26.73C22.199 26.451 21.805 26.451 21.652 26.73C21.431 27.143 21.201 27.547 20.962 27.94C20.435 28.843 19.907 29.746 19.351 30.63L19.111 31.014C20.003 31.293 20.952 31.437 21.93 31.437C22.937 31.437 23.915 31.283 24.826 30.985L24.606 30.62ZM17.875 24.492C17.424 24.55 16.983 24.617 16.533 24.665C15.488 24.79 14.462 24.915 13.417 25.011L12.899 25.059C13.599 27.019 14.922 28.69 16.619 29.824L16.753 29.42C17.079 28.421 17.424 27.441 17.779 26.452C17.942 25.972 18.115 25.501 18.297 25.021C18.412 24.741 18.172 24.444 17.875 24.492ZM17.875 24.492C17.424 24.55 16.983 24.617 16.533 24.665C15.488 24.79 14.462 24.915 13.417 25.011L12.899 25.059C13.599 27.019 14.922 28.69 16.619 29.824L16.753 29.42C17.079 28.421 17.424 27.441 17.779 26.452C17.942 25.972 18.115 25.501 18.297 25.021C18.412 24.741 18.172 24.444 17.875 24.492ZM24.606 30.62C24.05 29.736 23.532 28.824 23.014 27.921C22.784 27.527 22.563 27.133 22.352 26.73C22.199 26.451 21.805 26.451 21.652 26.73C21.431 27.143 21.201 27.547 20.962 27.94C20.435 28.843 19.907 29.746 19.351 30.63L19.111 31.014C20.003 31.293 20.952 31.437 21.93 31.437C22.937 31.437 23.915 31.283 24.826 30.985L24.606 30.62ZM23.312 12.33L23.36 12.705C23.494 13.742 23.59 14.79 23.686 15.827C23.724 16.24 23.763 16.644 23.791 17.057C23.81 17.374 24.165 17.537 24.424 17.355C24.75 17.115 25.086 16.875 25.431 16.644C26.294 16.058 27.147 15.472 28.029 14.905L28.355 14.703C26.984 13.454 25.239 12.599 23.312 12.33ZM30.627 25.02C29.582 24.953 28.546 24.857 27.501 24.761C27.05 24.723 26.609 24.675 26.159 24.626C25.871 24.588 25.641 24.876 25.747 25.154C25.91 25.586 26.063 26.019 26.217 26.461C26.553 27.441 26.898 28.43 27.214 29.429L27.319 29.775C28.987 28.632 30.282 26.98 30.962 25.039L30.627 25.02ZM30.119 16.835L29.86 17.114C29.141 17.883 28.403 18.622 27.664 19.362C27.194 19.842 26.686 20.303 26.197 20.774C26.849 20.937 27.501 21.11 28.153 21.302C29.16 21.59 30.157 21.869 31.154 22.195L31.509 22.31C31.519 22.156 31.519 21.993 31.519 21.83C31.519 19.996 31.011 18.286 30.119 16.835ZM30.119 16.835L29.86 17.114C29.141 17.883 28.403 18.622 27.664 19.362C27.194 19.842 26.686 20.303 26.197 20.774C26.849 20.937 27.501 21.11 28.153 21.302C29.16 21.59 30.157 21.869 31.154 22.195L31.509 22.31C31.519 22.156 31.519 21.993 31.519 21.83C31.519 19.996 31.011 18.286 30.119 16.835ZM30.627 25.02C29.582 24.953 28.546 24.857 27.501 24.761C27.05 24.723 26.609 24.675 26.159 24.626C25.871 24.588 25.641 24.876 25.747 25.154C25.91 25.586 26.063 26.019 26.217 26.461C26.553 27.441 26.898 28.43 27.214 29.429L27.319 29.775C28.987 28.632 30.282 26.98 30.962 25.039L30.627 25.02ZM23.312 12.33L23.36 12.705C23.494 13.742 23.59 14.79 23.686 15.827C23.724 16.24 23.763 16.644 23.791 17.057C23.81 17.374 24.165 17.537 24.424 17.355C24.75 17.115 25.086 16.875 25.431 16.644C26.294 16.058 27.147 15.472 28.029 14.905L28.355 14.703C26.984 13.454 25.239 12.599 23.312 12.33ZM24.606 30.62C24.05 29.736 23.532 28.824 23.014 27.921C22.784 27.527 22.563 27.133 22.352 26.73C22.199 26.451 21.805 26.451 21.652 26.73C21.431 27.143 21.201 27.547 20.962 27.94C20.435 28.843 19.907 29.746 19.351 30.63L19.111 31.014C20.003 31.293 20.952 31.437 21.93 31.437C22.937 31.437 23.915 31.283 24.826 30.985L24.606 30.62ZM17.875 24.492C17.424 24.55 16.983 24.617 16.533 24.665C15.488 24.79 14.462 24.915 13.417 25.011L12.899 25.059C13.599 27.019 14.922 28.69 16.619 29.824L16.753 29.42C17.079 28.421 17.424 27.441 17.779 26.452C17.942 25.972 18.115 25.501 18.297 25.021C18.412 24.741 18.172 24.444 17.875 24.492ZM17.338 20.111C17.012 19.813 16.696 19.515 16.379 19.198C15.631 18.458 14.893 17.728 14.164 16.969L13.857 16.652C12.898 18.141 12.342 19.918 12.342 21.83C12.342 22.013 12.352 22.185 12.352 22.358L12.803 22.204C13.791 21.849 14.788 21.541 15.775 21.215C16.245 21.061 16.715 20.927 17.184 20.783C17.482 20.697 17.568 20.322 17.338 20.111ZM17.875 24.492C17.424 24.55 16.983 24.617 16.533 24.665C15.488 24.79 14.462 24.915 13.417 25.011L12.899 25.059C13.599 27.019 14.922 28.69 16.619 29.824L16.753 29.42C17.079 28.421 17.424 27.441 17.779 26.452C17.942 25.972 18.115 25.501 18.297 25.021C18.412 24.741 18.172 24.444 17.875 24.492ZM24.606 30.62C24.05 29.736 23.532 28.824 23.014 27.921C22.784 27.527 22.563 27.133 22.352 26.73C22.199 26.451 21.805 26.451 21.652 26.73C21.431 27.143 21.201 27.547 20.962 27.94C20.435 28.843 19.907 29.746 19.351 30.63L19.111 31.014C20.003 31.293 20.952 31.437 21.93 31.437C22.937 31.437 23.915 31.283 24.826 30.985L24.606 30.62ZM23.312 12.33L23.36 12.705C23.494 13.742 23.59 14.79 23.686 15.827C23.724 16.24 23.763 16.644 23.791 17.057C23.81 17.374 24.165 17.537 24.424 17.355C24.75 17.115 25.086 16.875 25.431 16.644C26.294 16.058 27.147 15.472 28.029 14.905L28.355 14.703C26.984 13.454 25.239 12.599 23.312 12.33ZM30.627 25.02C29.582 24.953 28.546 24.857 27.501 24.761C27.05 24.723 26.609 24.675 26.159 24.626C25.871 24.588 25.641 24.876 25.747 25.154C25.91 25.586 26.063 26.019 26.217 26.461C26.553 27.441 26.898 28.43 27.214 29.429L27.319 29.775C28.987 28.632 30.282 26.98 30.962 25.039L30.627 25.02ZM30.119 16.835L29.86 17.114C29.141 17.883 28.403 18.622 27.664 19.362C27.194 19.842 26.686 20.303 26.197 20.774C26.849 20.937 27.501 21.11 28.153 21.302C29.16 21.59 30.157 21.869 31.154 22.195L31.509 22.31C31.519 22.156 31.519 21.993 31.519 21.83C31.519 19.996 31.011 18.286 30.119 16.835ZM30.119 16.835L29.86 17.114C29.141 17.883 28.403 18.622 27.664 19.362C27.194 19.842 26.686 20.303 26.197 20.774C26.849 20.937 27.501 21.11 28.153 21.302C29.16 21.59 30.157 21.869 31.154 22.195L31.509 22.31C31.519 22.156 31.519 21.993 31.519 21.83C31.519 19.996 31.011 18.286 30.119 16.835ZM27.501 24.761C27.05 24.723 26.609 24.675 26.159 24.626C25.871 24.588 25.641 24.876 25.747 25.154C25.91 25.586 26.063 26.019 26.217 26.461C26.553 27.441 26.898 28.43 27.214 29.429L27.319 29.775C28.987 28.632 30.282 26.98 30.962 25.039L30.626 25.02C29.582 24.953 28.547 24.857 27.501 24.761ZM28.355 14.703C26.984 13.454 25.239 12.599 23.312 12.33L23.36 12.705C23.494 13.742 23.59 14.79 23.686 15.827C23.724 16.24 23.763 16.644 23.791 17.057C23.81 17.374 24.165 17.537 24.424 17.355C24.75 17.115 25.086 16.875 25.431 16.644C26.294 16.058 27.147 15.472 28.029 14.905L28.355 14.703ZM23.014 27.921C22.784 27.527 22.563 27.133 22.352 26.73C22.199 26.451 21.805 26.451 21.652 26.73C21.431 27.143 21.201 27.547 20.962 27.94C20.435 28.843 19.907 29.746 19.351 30.63L19.111 31.014C20.003 31.293 20.952 31.437 21.93 31.437C22.937 31.437 23.915 31.283 24.826 30.985L24.605 30.62C24.05 29.737 23.532 28.824 23.014 27.921ZM17.875 24.492C17.424 24.55 16.983 24.617 16.533 24.665C15.488 24.79 14.462 24.915 13.417 25.011L12.899 25.059C13.599 27.019 14.922 28.69 16.619 29.824L16.753 29.42C17.079 28.421 17.424 27.441 17.779 26.452C17.942 25.972 18.115 25.501 18.297 25.021C18.412 24.741 18.172 24.444 17.875 24.492ZM17.185 20.783C17.482 20.697 17.569 20.322 17.338 20.111C17.012 19.813 16.696 19.515 16.379 19.198C15.631 18.458 14.893 17.728 14.164 16.969L13.857 16.652C12.898 18.141 12.342 19.918 12.342 21.83C12.342 22.013 12.352 22.185 12.352 22.358L12.803 22.204C13.791 21.849 14.788 21.541 15.775 21.215C16.245 21.062 16.715 20.928 17.185 20.783ZM42.766 25.174L39.103 9.05401C38.94 8.33401 38.461 7.73801 37.799 7.41101L22.976 0.245006C22.314 -0.0819941 21.547 -0.0819941 20.886 0.245006L6.063 7.41101C5.401 7.73801 4.922 8.33301 4.759 9.05401L1.096 25.174C0.933004 25.894 1.106 26.644 1.556 27.211L11.815 40.141C12.275 40.717 12.975 41.054 13.704 41.054H30.157C30.886 41.054 31.586 40.718 32.046 40.141L42.305 27.211C42.756 26.643 42.929 25.894 42.766 25.174ZM37.646 25.846C37.358 25.913 37.071 25.846 36.841 25.702C36.371 25.385 35.873 25.212 35.374 25.068C35.125 25.001 34.866 24.943 34.617 24.905C34.368 24.828 34.08 24.905 33.792 25.039C33.504 25.202 33.245 25.174 32.977 25.154H32.948C32.123 27.892 30.311 30.207 27.914 31.677V31.687C27.991 31.937 28.077 32.177 28 32.504C27.933 32.821 27.923 33.109 28.058 33.34C28.163 33.571 28.279 33.811 28.403 34.032C28.662 34.483 28.95 34.935 29.371 35.31C29.793 35.704 29.822 36.357 29.438 36.789C29.045 37.212 28.393 37.24 27.961 36.856C27.74 36.654 27.625 36.385 27.625 36.107C27.606 35.54 27.462 35.041 27.289 34.541C27.203 34.301 27.107 34.061 26.992 33.821C26.906 33.571 26.676 33.398 26.397 33.235C26.129 33.091 25.994 32.889 25.86 32.668C24.633 33.12 23.31 33.36 21.929 33.36C20.568 33.36 19.264 33.12 18.055 32.688C17.94 32.899 17.806 33.091 17.537 33.236C17.259 33.39 17.029 33.572 16.943 33.822C16.828 34.053 16.722 34.293 16.636 34.533C16.463 35.033 16.31 35.532 16.3 36.099C16.281 36.675 15.792 37.127 15.217 37.108C14.642 37.089 14.191 36.609 14.21 36.032C14.22 35.734 14.354 35.475 14.555 35.292C14.977 34.908 15.265 34.466 15.533 34.024C15.658 33.793 15.773 33.563 15.878 33.323C16.012 33.102 16.003 32.804 15.945 32.487C15.878 32.189 15.945 31.949 16.022 31.728C13.615 30.277 11.774 27.972 10.931 25.234C10.71 25.253 10.5 25.253 10.25 25.128C9.953 25.003 9.675 24.926 9.425 25.013C9.166 25.061 8.917 25.128 8.668 25.205C8.169 25.368 7.68 25.551 7.22 25.877C6.75 26.213 6.098 26.098 5.763 25.627C5.437 25.156 5.542 24.503 6.012 24.176C6.252 24.003 6.549 23.945 6.817 23.993C7.364 24.108 7.891 24.07 8.409 24.003C8.668 23.974 8.927 23.926 9.176 23.859C9.435 23.84 9.665 23.648 9.876 23.408C10.058 23.197 10.269 23.11 10.48 23.033C10.442 22.639 10.422 22.236 10.422 21.832C10.422 19.373 11.189 17.096 12.503 15.223C12.33 15.05 12.167 14.877 12.1 14.57C12.014 14.263 11.899 13.994 11.678 13.85C11.477 13.677 11.275 13.523 11.064 13.379C10.623 13.091 10.172 12.822 9.635 12.659C9.079 12.505 8.753 11.919 8.916 11.372C9.079 10.815 9.654 10.498 10.21 10.652C10.488 10.738 10.718 10.931 10.843 11.171C11.102 11.671 11.457 12.064 11.831 12.429C12.013 12.612 12.215 12.784 12.416 12.938C12.598 13.13 12.886 13.188 13.202 13.207C13.538 13.217 13.748 13.361 13.969 13.505L13.979 13.515C15.782 11.767 18.159 10.614 20.796 10.364C20.825 10.105 20.844 9.84501 21.045 9.58601C21.237 9.32701 21.371 9.06701 21.342 8.80801C21.352 8.54901 21.342 8.28901 21.323 8.02001C21.265 7.50101 21.189 6.98201 20.968 6.46401C20.738 5.93601 20.987 5.32101 21.515 5.09001C22.042 4.86901 22.656 5.10901 22.886 5.63801C23.001 5.91701 22.991 6.21401 22.886 6.46401C22.665 6.98301 22.589 7.50101 22.531 8.02001C22.512 8.28901 22.502 8.54801 22.512 8.80801C22.483 9.06701 22.617 9.32701 22.809 9.58601C23.01 9.84501 23.03 10.105 23.058 10.364C25.762 10.623 28.197 11.824 30.019 13.649C30.24 13.505 30.45 13.351 30.786 13.342C31.102 13.323 31.39 13.265 31.572 13.073C31.773 12.91 31.965 12.737 32.157 12.554C32.521 12.189 32.876 11.795 33.135 11.296C33.394 10.777 34.027 10.576 34.535 10.845C35.053 11.104 35.254 11.738 34.986 12.248C34.852 12.517 34.622 12.7 34.353 12.776C33.816 12.93 33.365 13.208 32.934 13.496C32.723 13.65 32.512 13.803 32.32 13.976C32.099 14.12 31.984 14.389 31.898 14.696C31.831 15.023 31.649 15.205 31.467 15.397C32.713 17.232 33.433 19.451 33.433 21.833C33.433 22.198 33.414 22.563 33.385 22.919H33.395C33.644 22.996 33.894 23.063 34.114 23.322C34.335 23.553 34.565 23.725 34.824 23.745C35.083 23.803 35.332 23.841 35.591 23.87C36.118 23.918 36.636 23.937 37.192 23.812C37.758 23.687 38.314 24.043 38.438 24.609C38.566 25.164 38.211 25.721 37.646 25.846ZM29.86 17.114C29.141 17.883 28.403 18.622 27.664 19.362C27.194 19.842 26.686 20.303 26.197 20.774C26.849 20.937 27.501 21.11 28.153 21.302C29.16 21.59 30.157 21.869 31.154 22.195L31.509 22.31C31.519 22.156 31.519 21.993 31.519 21.83C31.519 19.995 31.011 18.285 30.119 16.835L29.86 17.114ZM27.501 24.761C27.05 24.723 26.609 24.675 26.159 24.626C25.871 24.588 25.641 24.876 25.747 25.154C25.91 25.586 26.063 26.019 26.217 26.461C26.553 27.441 26.898 28.43 27.214 29.429L27.319 29.775C28.987 28.632 30.282 26.98 30.962 25.039L30.626 25.02C29.582 24.953 28.547 24.857 27.501 24.761ZM28.355 14.703C26.984 13.454 25.239 12.599 23.312 12.33L23.36 12.705C23.494 13.742 23.59 14.79 23.686 15.827C23.724 16.24 23.763 16.644 23.791 17.057C23.81 17.374 24.165 17.537 24.424 17.355C24.75 17.115 25.086 16.875 25.431 16.644C26.294 16.058 27.147 15.472 28.029 14.905L28.355 14.703ZM23.014 27.921C22.784 27.527 22.563 27.133 22.352 26.73C22.199 26.451 21.805 26.451 21.652 26.73C21.431 27.143 21.201 27.547 20.962 27.94C20.435 28.843 19.907 29.746 19.351 30.63L19.111 31.014C20.003 31.293 20.952 31.437 21.93 31.437C22.937 31.437 23.915 31.283 24.826 30.985L24.605 30.62C24.05 29.737 23.532 28.824 23.014 27.921ZM20.176 15.827C20.272 14.789 20.368 13.742 20.502 12.705L20.55 12.33C18.7 12.589 17.022 13.387 15.679 14.559L15.976 14.742C16.868 15.299 17.731 15.885 18.594 16.471C19.093 16.788 19.562 17.143 20.032 17.48C20.071 16.931 20.119 16.374 20.176 15.827ZM17.875 24.492C17.424 24.55 16.983 24.617 16.533 24.665C15.488 24.79 14.462 24.915 13.417 25.011L12.899 25.059C13.599 27.019 14.922 28.69 16.619 29.824L16.753 29.42C17.079 28.421 17.424 27.441 17.779 26.452C17.942 25.972 18.115 25.501 18.297 25.021C18.412 24.741 18.172 24.444 17.875 24.492ZM17.185 20.783C17.482 20.697 17.569 20.322 17.338 20.111C17.012 19.813 16.696 19.515 16.379 19.198C15.631 18.458 14.893 17.728 14.164 16.969L13.857 16.652C12.898 18.141 12.342 19.918 12.342 21.83C12.342 22.013 12.352 22.185 12.352 22.358L12.803 22.204C13.791 21.849 14.788 21.541 15.775 21.215C16.245 21.062 16.715 20.928 17.185 20.783ZM17.338 20.111C17.012 19.813 16.696 19.515 16.379 19.198C15.631 18.458 14.893 17.728 14.164 16.969L13.857 16.652C12.898 18.141 12.342 19.918 12.342 21.83C12.342 22.013 12.352 22.185 12.352 22.358L12.803 22.204C13.791 21.849 14.788 21.541 15.775 21.215C16.245 21.061 16.715 20.927 17.184 20.783C17.482 20.697 17.568 20.322 17.338 20.111ZM17.875 24.492C17.424 24.55 16.983 24.617 16.533 24.665C15.488 24.79 14.462 24.915 13.417 25.011L12.899 25.059C13.599 27.019 14.922 28.69 16.619 29.824L16.753 29.42C17.079 28.421 17.424 27.441 17.779 26.452C17.942 25.972 18.115 25.501 18.297 25.021C18.412 24.741 18.172 24.444 17.875 24.492ZM24.606 30.62C24.05 29.736 23.532 28.824 23.014 27.921C22.784 27.527 22.563 27.133 22.352 26.73C22.199 26.451 21.805 26.451 21.652 26.73C21.431 27.143 21.201 27.547 20.962 27.94C20.435 28.843 19.907 29.746 19.351 30.63L19.111 31.014C20.003 31.293 20.952 31.437 21.93 31.437C22.937 31.437 23.915 31.283 24.826 30.985L24.606 30.62ZM23.312 12.33L23.36 12.705C23.494 13.742 23.59 14.79 23.686 15.827C23.724 16.24 23.763 16.644 23.791 17.057C23.81 17.374 24.165 17.537 24.424 17.355C24.75 17.115 25.086 16.875 25.431 16.644C26.294 16.058 27.147 15.472 28.029 14.905L28.355 14.703C26.984 13.454 25.239 12.599 23.312 12.33ZM30.627 25.02C29.582 24.953 28.546 24.857 27.501 24.761C27.05 24.723 26.609 24.675 26.159 24.626C25.871 24.588 25.641 24.876 25.747 25.154C25.91 25.586 26.063 26.019 26.217 26.461C26.553 27.441 26.898 28.43 27.214 29.429L27.319 29.775C28.987 28.632 30.282 26.98 30.962 25.039L30.627 25.02ZM30.119 16.835L29.86 17.114C29.141 17.883 28.403 18.622 27.664 19.362C27.194 19.842 26.686 20.303 26.197 20.774C26.849 20.937 27.501 21.11 28.153 21.302C29.16 21.59 30.157 21.869 31.154 22.195L31.509 22.31C31.519 22.156 31.519 21.993 31.519 21.83C31.519 19.996 31.011 18.286 30.119 16.835ZM30.119 16.835L29.86 17.114C29.141 17.883 28.403 18.622 27.664 19.362C27.194 19.842 26.686 20.303 26.197 20.774C26.849 20.937 27.501 21.11 28.153 21.302C29.16 21.59 30.157 21.869 31.154 22.195L31.509 22.31C31.519 22.156 31.519 21.993 31.519 21.83C31.519 19.996 31.011 18.286 30.119 16.835ZM30.627 25.02C29.582 24.953 28.546 24.857 27.501 24.761C27.05 24.723 26.609 24.675 26.159 24.626C25.871 24.588 25.641 24.876 25.747 25.154C25.91 25.586 26.063 26.019 26.217 26.461C26.553 27.441 26.898 28.43 27.214 29.429L27.319 29.775C28.987 28.632 30.282 26.98 30.962 25.039L30.627 25.02ZM23.312 12.33L23.36 12.705C23.494 13.742 23.59 14.79 23.686 15.827C23.724 16.24 23.763 16.644 23.791 17.057C23.81 17.374 24.165 17.537 24.424 17.355C24.75 17.115 25.086 16.875 25.431 16.644C26.294 16.058 27.147 15.472 28.029 14.905L28.355 14.703C26.984 13.454 25.239 12.599 23.312 12.33ZM24.606 30.62C24.05 29.736 23.532 28.824 23.014 27.921C22.784 27.527 22.563 27.133 22.352 26.73C22.199 26.451 21.805 26.451 21.652 26.73C21.431 27.143 21.201 27.547 20.962 27.94C20.435 28.843 19.907 29.746 19.351 30.63L19.111 31.014C20.003 31.293 20.952 31.437 21.93 31.437C22.937 31.437 23.915 31.283 24.826 30.985L24.606 30.62ZM17.875 24.492C17.424 24.55 16.983 24.617 16.533 24.665C15.488 24.79 14.462 24.915 13.417 25.011L12.899 25.059C13.599 27.019 14.922 28.69 16.619 29.824L16.753 29.42C17.079 28.421 17.424 27.441 17.779 26.452C17.942 25.972 18.115 25.501 18.297 25.021C18.412 24.741 18.172 24.444 17.875 24.492ZM17.338 20.111C17.012 19.813 16.696 19.515 16.379 19.198C15.631 18.458 14.893 17.728 14.164 16.969L13.857 16.652C12.898 18.141 12.342 19.918 12.342 21.83C12.342 22.013 12.352 22.185 12.352 22.358L12.803 22.204C13.791 21.849 14.788 21.541 15.775 21.215C16.245 21.061 16.715 20.927 17.184 20.783C17.482 20.697 17.568 20.322 17.338 20.111ZM17.875 24.492C17.424 24.55 16.983 24.617 16.533 24.665C15.488 24.79 14.462 24.915 13.417 25.011L12.899 25.059C13.599 27.019 14.922 28.69 16.619 29.824L16.753 29.42C17.079 28.421 17.424 27.441 17.779 26.452C17.942 25.972 18.115 25.501 18.297 25.021C18.412 24.741 18.172 24.444 17.875 24.492ZM24.606 30.62C24.05 29.736 23.532 28.824 23.014 27.921C22.784 27.527 22.563 27.133 22.352 26.73C22.199 26.451 21.805 26.451 21.652 26.73C21.431 27.143 21.201 27.547 20.962 27.94C20.435 28.843 19.907 29.746 19.351 30.63L19.111 31.014C20.003 31.293 20.952 31.437 21.93 31.437C22.937 31.437 23.915 31.283 24.826 30.985L24.606 30.62ZM23.312 12.33L23.36 12.705C23.494 13.742 23.59 14.79 23.686 15.827C23.724 16.24 23.763 16.644 23.791 17.057C23.81 17.374 24.165 17.537 24.424 17.355C24.75 17.115 25.086 16.875 25.431 16.644C26.294 16.058 27.147 15.472 28.029 14.905L28.355 14.703C26.984 13.454 25.239 12.599 23.312 12.33ZM30.627 25.02C29.582 24.953 28.546 24.857 27.501 24.761C27.05 24.723 26.609 24.675 26.159 24.626C25.871 24.588 25.641 24.876 25.747 25.154C25.91 25.586 26.063 26.019 26.217 26.461C26.553 27.441 26.898 28.43 27.214 29.429L27.319 29.775C28.987 28.632 30.282 26.98 30.962 25.039L30.627 25.02ZM30.119 16.835L29.86 17.114C29.141 17.883 28.403 18.622 27.664 19.362C27.194 19.842 26.686 20.303 26.197 20.774C26.849 20.937 27.501 21.11 28.153 21.302C29.16 21.59 30.157 21.869 31.154 22.195L31.509 22.31C31.519 22.156 31.519 21.993 31.519 21.83C31.519 19.996 31.011 18.286 30.119 16.835ZM30.119 16.835L29.86 17.114C29.141 17.883 28.403 18.622 27.664 19.362C27.194 19.842 26.686 20.303 26.197 20.774C26.849 20.937 27.501 21.11 28.153 21.302C29.16 21.59 30.157 21.869 31.154 22.195L31.509 22.31C31.519 22.156 31.519 21.993 31.519 21.83C31.519 19.996 31.011 18.286 30.119 16.835ZM30.627 25.02C29.582 24.953 28.546 24.857 27.501 24.761C27.05 24.723 26.609 24.675 26.159 24.626C25.871 24.588 25.641 24.876 25.747 25.154C25.91 25.586 26.063 26.019 26.217 26.461C26.553 27.441 26.898 28.43 27.214 29.429L27.319 29.775C28.987 28.632 30.282 26.98 30.962 25.039L30.627 25.02ZM23.312 12.33L23.36 12.705C23.494 13.742 23.59 14.79 23.686 15.827C23.724 16.24 23.763 16.644 23.791 17.057C23.81 17.374 24.165 17.537 24.424 17.355C24.75 17.115 25.086 16.875 25.431 16.644C26.294 16.058 27.147 15.472 28.029 14.905L28.355 14.703C26.984 13.454 25.239 12.599 23.312 12.33ZM24.606 30.62C24.05 29.736 23.532 28.824 23.014 27.921C22.784 27.527 22.563 27.133 22.352 26.73C22.199 26.451 21.805 26.451 21.652 26.73C21.431 27.143 21.201 27.547 20.962 27.94C20.435 28.843 19.907 29.746 19.351 30.63L19.111 31.014C20.003 31.293 20.952 31.437 21.93 31.437C22.937 31.437 23.915 31.283 24.826 30.985L24.606 30.62ZM17.875 24.492C17.424 24.55 16.983 24.617 16.533 24.665C15.488 24.79 14.462 24.915 13.417 25.011L12.899 25.059C13.599 27.019 14.922 28.69 16.619 29.824L16.753 29.42C17.079 28.421 17.424 27.441 17.779 26.452C17.942 25.972 18.115 25.501 18.297 25.021C18.412 24.741 18.172 24.444 17.875 24.492ZM24.606 30.62C24.05 29.736 23.532 28.824 23.014 27.921C22.784 27.527 22.563 27.133 22.352 26.73C22.199 26.451 21.805 26.451 21.652 26.73C21.431 27.143 21.201 27.547 20.962 27.94C20.435 28.843 19.907 29.746 19.351 30.63L19.111 31.014C20.003 31.293 20.952 31.437 21.93 31.437C22.937 31.437 23.915 31.283 24.826 30.985L24.606 30.62ZM23.312 12.33L23.36 12.705C23.494 13.742 23.59 14.79 23.686 15.827C23.724 16.24 23.763 16.644 23.791 17.057C23.81 17.374 24.165 17.537 24.424 17.355C24.75 17.115 25.086 16.875 25.431 16.644C26.294 16.058 27.147 15.472 28.029 14.905L28.355 14.703C26.984 13.454 25.239 12.599 23.312 12.33ZM30.627 25.02C29.582 24.953 28.546 24.857 27.501 24.761C27.05 24.723 26.609 24.675 26.159 24.626C25.871 24.588 25.641 24.876 25.747 25.154C25.91 25.586 26.063 26.019 26.217 26.461C26.553 27.441 26.898 28.43 27.214 29.429L27.319 29.775C28.987 28.632 30.282 26.98 30.962 25.039L30.627 25.02ZM30.119 16.835L29.86 17.114C29.141 17.883 28.403 18.622 27.664 19.362C27.194 19.842 26.686 20.303 26.197 20.774C26.849 20.937 27.501 21.11 28.153 21.302C29.16 21.59 30.157 21.869 31.154 22.195L31.509 22.31C31.519 22.156 31.519 21.993 31.519 21.83C31.519 19.996 31.011 18.286 30.119 16.835ZM30.119 16.835L29.86 17.114C29.141 17.883 28.403 18.622 27.664 19.362C27.194 19.842 26.686 20.303 26.197 20.774C26.849 20.937 27.501 21.11 28.153 21.302C29.16 21.59 30.157 21.869 31.154 22.195L31.509 22.31C31.519 22.156 31.519 21.993 31.519 21.83C31.519 19.996 31.011 18.286 30.119 16.835ZM30.627 25.02C29.582 24.953 28.546 24.857 27.501 24.761C27.05 24.723 26.609 24.675 26.159 24.626C25.871 24.588 25.641 24.876 25.747 25.154C25.91 25.586 26.063 26.019 26.217 26.461C26.553 27.441 26.898 28.43 27.214 29.429L27.319 29.775C28.987 28.632 30.282 26.98 30.962 25.039L30.627 25.02ZM23.312 12.33L23.36 12.705C23.494 13.742 23.59 14.79 23.686 15.827C23.724 16.24 23.763 16.644 23.791 17.057C23.81 17.374 24.165 17.537 24.424 17.355C24.75 17.115 25.086 16.875 25.431 16.644C26.294 16.058 27.147 15.472 28.029 14.905L28.355 14.703C26.984 13.454 25.239 12.599 23.312 12.33ZM24.606 30.62C24.05 29.736 23.532 28.824 23.014 27.921C22.784 27.527 22.563 27.133 22.352 26.73C22.199 26.451 21.805 26.451 21.652 26.73C21.431 27.143 21.201 27.547 20.962 27.94C20.435 28.843 19.907 29.746 19.351 30.63L19.111 31.014C20.003 31.293 20.952 31.437 21.93 31.437C22.937 31.437 23.915 31.283 24.826 30.985L24.606 30.62ZM24.606 30.62C24.05 29.736 23.532 28.824 23.014 27.921C22.784 27.527 22.563 27.133 22.352 26.73C22.199 26.451 21.805 26.451 21.652 26.73C21.431 27.143 21.201 27.547 20.962 27.94C20.435 28.843 19.907 29.746 19.351 30.63L19.111 31.014C20.003 31.293 20.952 31.437 21.93 31.437C22.937 31.437 23.915 31.283 24.826 30.985L24.606 30.62ZM23.312 12.33L23.36 12.705C23.494 13.742 23.59 14.79 23.686 15.827C23.724 16.24 23.763 16.644 23.791 17.057C23.81 17.374 24.165 17.537 24.424 17.355C24.75 17.115 25.086 16.875 25.431 16.644C26.294 16.058 27.147 15.472 28.029 14.905L28.355 14.703C26.984 13.454 25.239 12.599 23.312 12.33ZM30.627 25.02C29.582 24.953 28.546 24.857 27.501 24.761C27.05 24.723 26.609 24.675 26.159 24.626C25.871 24.588 25.641 24.876 25.747 25.154C25.91 25.586 26.063 26.019 26.217 26.461C26.553 27.441 26.898 28.43 27.214 29.429L27.319 29.775C28.987 28.632 30.282 26.98 30.962 25.039L30.627 25.02ZM30.119 16.835L29.86 17.114C29.141 17.883 28.403 18.622 27.664 19.362C27.194 19.842 26.686 20.303 26.197 20.774C26.849 20.937 27.501 21.11 28.153 21.302C29.16 21.59 30.157 21.869 31.154 22.195L31.509 22.31C31.519 22.156 31.519 21.993 31.519 21.83C31.519 19.996 31.011 18.286 30.119 16.835ZM30.119 16.835L29.86 17.114C29.141 17.883 28.403 18.622 27.664 19.362C27.194 19.842 26.686 20.303 26.197 20.774C26.849 20.937 27.501 21.11 28.153 21.302C29.16 21.59 30.157 21.869 31.154 22.195L31.509 22.31C31.519 22.156 31.519 21.993 31.519 21.83C31.519 19.996 31.011 18.286 30.119 16.835ZM30.627 25.02C29.582 24.953 28.546 24.857 27.501 24.761C27.05 24.723 26.609 24.675 26.159 24.626C25.871 24.588 25.641 24.876 25.747 25.154C25.91 25.586 26.063 26.019 26.217 26.461C26.553 27.441 26.898 28.43 27.214 29.429L27.319 29.775C28.987 28.632 30.282 26.98 30.962 25.039L30.627 25.02ZM23.312 12.33L23.36 12.705C23.494 13.742 23.59 14.79 23.686 15.827C23.724 16.24 23.763 16.644 23.791 17.057C23.81 17.374 24.165 17.537 24.424 17.355C24.75 17.115 25.086 16.875 25.431 16.644C26.294 16.058 27.147 15.472 28.029 14.905L28.355 14.703C26.984 13.454 25.239 12.599 23.312 12.33ZM24.606 30.62C24.05 29.736 23.532 28.824 23.014 27.921C22.784 27.527 22.563 27.133 22.352 26.73C22.199 26.451 21.805 26.451 21.652 26.73C21.431 27.143 21.201 27.547 20.962 27.94C20.435 28.843 19.907 29.746 19.351 30.63L19.111 31.014C20.003 31.293 20.952 31.437 21.93 31.437C22.937 31.437 23.915 31.283 24.826 30.985L24.606 30.62ZM23.312 12.33L23.36 12.705C23.494 13.742 23.59 14.79 23.686 15.827C23.724 16.24 23.763 16.644 23.791 17.057C23.81 17.374 24.165 17.537 24.424 17.355C24.75 17.115 25.086 16.875 25.431 16.644C26.294 16.058 27.147 15.472 28.029 14.905L28.355 14.703C26.984 13.454 25.239 12.599 23.312 12.33ZM30.627 25.02C29.582 24.953 28.546 24.857 27.501 24.761C27.05 24.723 26.609 24.675 26.159 24.626C25.871 24.588 25.641 24.876 25.747 25.154C25.91 25.586 26.063 26.019 26.217 26.461C26.553 27.441 26.898 28.43 27.214 29.429L27.319 29.775C28.987 28.632 30.282 26.98 30.962 25.039L30.627 25.02ZM30.119 16.835L29.86 17.114C29.141 17.883 28.403 18.622 27.664 19.362C27.194 19.842 26.686 20.303 26.197 20.774C26.849 20.937 27.501 21.11 28.153 21.302C29.16 21.59 30.157 21.869 31.154 22.195L31.509 22.31C31.519 22.156 31.519 21.993 31.519 21.83C31.519 19.996 31.011 18.286 30.119 16.835ZM30.119 16.835L29.86 17.114C29.141 17.883 28.403 18.622 27.664 19.362C27.194 19.842 26.686 20.303 26.197 20.774C26.849 20.937 27.501 21.11 28.153 21.302C29.16 21.59 30.157 21.869 31.154 22.195L31.509 22.31C31.519 22.156 31.519 21.993 31.519 21.83C31.519 19.996 31.011 18.286 30.119 16.835ZM30.627 25.02C29.582 24.953 28.546 24.857 27.501 24.761C27.05 24.723 26.609 24.675 26.159 24.626C25.871 24.588 25.641 24.876 25.747 25.154C25.91 25.586 26.063 26.019 26.217 26.461C26.553 27.441 26.898 28.43 27.214 29.429L27.319 29.775C28.987 28.632 30.282 26.98 30.962 25.039L30.627 25.02ZM23.312 12.33L23.36 12.705C23.494 13.742 23.59 14.79 23.686 15.827C23.724 16.24 23.763 16.644 23.791 17.057C23.81 17.374 24.165 17.537 24.424 17.355C24.75 17.115 25.086 16.875 25.431 16.644C26.294 16.058 27.147 15.472 28.029 14.905L28.355 14.703C26.984 13.454 25.239 12.599 23.312 12.33ZM23.312 12.33L23.36 12.705C23.494 13.742 23.59 14.79 23.686 15.827C23.724 16.24 23.763 16.644 23.791 17.057C23.81 17.374 24.165 17.537 24.424 17.355C24.75 17.115 25.086 16.875 25.431 16.644C26.294 16.058 27.147 15.472 28.029 14.905L28.355 14.703C26.984 13.454 25.239 12.599 23.312 12.33ZM30.119 16.835L29.86 17.114C29.141 17.883 28.403 18.622 27.664 19.362C27.194 19.842 26.686 20.303 26.197 20.774C26.849 20.937 27.501 21.11 28.153 21.302C29.16 21.59 30.157 21.869 31.154 22.195L31.509 22.31C31.519 22.156 31.519 21.993 31.519 21.83C31.519 19.996 31.011 18.286 30.119 16.835ZM30.119 16.835L29.86 17.114C29.141 17.883 28.403 18.622 27.664 19.362C27.194 19.842 26.686 20.303 26.197 20.774C26.849 20.937 27.501 21.11 28.153 21.302C29.16 21.59 30.157 21.869 31.154 22.195L31.509 22.31C31.519 22.156 31.519 21.993 31.519 21.83C31.519 19.996 31.011 18.286 30.119 16.835ZM23.312 12.33L23.36 12.705C23.494 13.742 23.59 14.79 23.686 15.827C23.724 16.24 23.763 16.644 23.791 17.057C23.81 17.374 24.165 17.537 24.424 17.355C24.75 17.115 25.086 16.875 25.431 16.644C26.294 16.058 27.147 15.472 28.029 14.905L28.355 14.703C26.984 13.454 25.239 12.599 23.312 12.33ZM23.312 12.33L23.36 12.705C23.494 13.742 23.59 14.79 23.686 15.827C23.724 16.24 23.763 16.644 23.791 17.057C23.81 17.374 24.165 17.537 24.424 17.355C24.75 17.115 25.086 16.875 25.431 16.644C26.294 16.058 27.147 15.472 28.029 14.905L28.355 14.703C26.984 13.454 25.239 12.599 23.312 12.33ZM30.119 16.835L29.86 17.114C29.141 17.883 28.403 18.622 27.664 19.362C27.194 19.842 26.686 20.303 26.197 20.774C26.849 20.937 27.501 21.11 28.153 21.302C29.16 21.59 30.157 21.869 31.154 22.195L31.509 22.31C31.519 22.156 31.519 21.993 31.519 21.83C31.519 19.996 31.011 18.286 30.119 16.835ZM30.119 16.835L29.86 17.114C29.141 17.883 28.403 18.622 27.664 19.362C27.194 19.842 26.686 20.303 26.197 20.774C26.849 20.937 27.501 21.11 28.153 21.302C29.16 21.59 30.157 21.869 31.154 22.195L31.509 22.31C31.519 22.156 31.519 21.993 31.519 21.83C31.519 19.996 31.011 18.286 30.119 16.835ZM23.312 12.33L23.36 12.705C23.494 13.742 23.59 14.79 23.686 15.827C23.724 16.24 23.763 16.644 23.791 17.057C23.81 17.374 24.165 17.537 24.424 17.355C24.75 17.115 25.086 16.875 25.431 16.644C26.294 16.058 27.147 15.472 28.029 14.905L28.355 14.703C26.984 13.454 25.239 12.599 23.312 12.33ZM23.312 12.33L23.36 12.705C23.494 13.742 23.59 14.79 23.686 15.827C23.724 16.24 23.763 16.644 23.791 17.057C23.81 17.374 24.165 17.537 24.424 17.355C24.75 17.115 25.086 16.875 25.431 16.644C26.294 16.058 27.147 15.472 28.029 14.905L28.355 14.703C26.984 13.454 25.239 12.599 23.312 12.33ZM23.312 12.33L23.36 12.705C23.494 13.742 23.59 14.79 23.686 15.827C23.724 16.24 23.763 16.644 23.791 17.057C23.81 17.374 24.165 17.537 24.424 17.355C24.75 17.115 25.086 16.875 25.431 16.644C26.294 16.058 27.147 15.472 28.029 14.905L28.355 14.703C26.984 13.454 25.239 12.599 23.312 12.33Z" fill="#0277BD"/>
</g>
<defs>
<clipPath id="clip0_2_18">
<rect width="43" height="41" fill="white"/>
</clipPath>
</defs>
</svg>
