<svg width="38" height="38" viewBox="0 0 38 38" fill="none" xmlns="http://www.w3.org/2000/svg">
<g clip-path="url(#clip0_2_3)">
<path d="M19.047 -3.12696e-06C17.492 0.00499687 16.414 0.141997 15.111 0.366997C11.263 1.037 10.562 2.444 10.562 5.037V9H19.562V11H10.22H5.87001C3.23401 11 0.927012 12.242 0.196012 15.219C-0.629988 18.636 -0.666988 20.776 0.196012 24.344C0.851012 27.005 2.29401 29 4.93101 29H8.56301V23.896C8.56301 20.93 11.249 18 14.327 18H21.563C24.086 18 26.563 16.138 26.563 13.623V5.037C26.563 2.598 24.804 0.773997 22.345 0.364997C22.406 0.358997 20.589 -0.00600313 19.047 -3.12696e-06ZM14.063 4C14.884 4 15.563 4.677 15.563 5.502C15.563 6.335 14.884 7 14.063 7C13.226 7 12.563 6.336 12.563 5.502C12.563 4.68 13.226 4 14.063 4Z" fill="#0277BD"/>
<path d="M18.078 38C19.633 37.995 20.711 37.858 22.014 37.633C25.862 36.963 26.563 35.556 26.563 32.963V29H17.563V27H26.906H31.256C33.892 27 36.199 25.758 36.93 22.781C37.756 19.364 37.793 17.224 36.93 13.656C36.274 10.995 34.831 9 32.194 9H28.562V14.104C28.562 17.07 25.876 20 22.798 20H15.562C13.039 20 10.562 21.862 10.562 24.377V32.963C10.562 35.402 12.321 37.226 14.78 37.635C14.719 37.641 16.536 38.006 18.078 38ZM23.063 34C22.242 34 21.563 33.323 21.563 32.498C21.563 31.665 22.242 31 23.063 31C23.9 31 24.563 31.664 24.563 32.498C24.563 33.32 23.899 34 23.063 34Z" fill="#FFC107"/>
</g>
<defs>
<clipPath id="clip0_2_3">
<rect width="38" height="38" fill="white"/>
</clipPath>
</defs>
</svg>
