<?xml version="1.0" encoding="UTF-8" standalone="no"?>
<!-- Created with Inkscape (http://www.inkscape.org/) -->

<svg
   xmlns:dc="http://purl.org/dc/elements/1.1/"
   xmlns:cc="http://creativecommons.org/ns#"
   xmlns:rdf="http://www.w3.org/1999/02/22-rdf-syntax-ns#"
   xmlns:svg="http://www.w3.org/2000/svg"
   xmlns="http://www.w3.org/2000/svg"
   version="1.1"
   width="310"
   height="310"
   id="svg3039">
  <metadata
     id="metadata3045">
    <rdf:RDF>
      <cc:Work
         rdf:about="">
        <dc:format>image/svg+xml</dc:format>
        <dc:type
           rdf:resource="http://purl.org/dc/dcmitype/StillImage" />
        <dc:title></dc:title>
      </cc:Work>
    </rdf:RDF>
  </metadata>
  <defs
     id="defs3043" />
  <rect
     width="310"
     height="310"
     x="0"
     y="-310"
     transform="matrix(0,1,-1,0,0,0)"
     id="rect3087"
     style="fill:#0000ff;fill-opacity:1;fill-rule:evenodd;stroke:none" />
  <path
     d="m 47.44753,87.559559 c 1.05738,2.57696 3.11387,7.83538 4.56999,11.685379 1.45612,3.850002 2.11744,5.819682 3.99467,10.000002 1.87723,4.18032 2.5885,10.13943 -1.55051,22.5 -4.139,12.36055 -4.18502,12.47746 -4.57594,25.67153 -0.39091,13.19407 0.36046,17.51825 5.41258,28.27521 5.05212,10.75696 2.11009,18.55804 -4.42993,32.95303 -6.54002,14.39499 -3.21354,10.84827 2.04397,16.01531 5.25751,5.16704 5.58833,5.35 6.85815,4.29615 1.26982,-1.05385 4.02227,-7.31072 9.21587,-21.71124 5.19359,-14.40052 5.02941,-14.36735 7.11329,-15.16701 2.08388,-0.79966 7.15495,6.12204 15.98466,20.16701 8.8297,14.04497 12.27522,19.475 14.21583,22.5 1.94061,3.025 1.09456,1.62734 5.72798,9 4.63342,7.37266 13.50394,20.76555 14.99404,22 1.4901,1.23445 2.26869,1.48656 12.40676,1.18913 10.13807,-0.29743 13.96788,-2.19169 12.23177,-5.43564 -1.73611,-3.24395 -11.36794,-14.98973 -18.98677,-23.25349 -7.61883,-8.26376 -36.45652,-41.30745 -38.11858,-44.04233 -1.66206,-2.73488 0.77242,-4.63375 3.11232,-3.40061 2.3399,1.23314 2.38338,1.27358 2.85736,1.84264 0.47398,0.56906 37.95334,32.00467 49.54486,41.6003 11.59152,9.59563 8.2347,6.85832 12.39357,10.3518 4.15886,3.49349 6.5077,5.46699 9.72611,8.16907 3.21841,2.70208 4.55657,5.20678 13.69647,0.4632 9.13991,-4.74358 13.63899,-7.5555 13.63899,-8.99804 0,-1.44253 -23.75019,-17.18278 -36.5,-25.00803 -12.74981,-7.82525 -11.95446,-7.37217 -17.5,-10.97952 -5.54554,-3.60734 -21.25846,-13.62045 -31.5,-20.00946 -10.24153,-6.389 -11.5,-6.62966 -11.5,-9.5357 0,-2.90604 11.6227,1.99038 27,10.12269 15.3773,8.13231 20.6,10.7947 30.5,15.90854 9.9,5.11384 22.275,11.55892 27.5,14.32241 5.225,2.76349 15.98635,8.27906 18.44669,9.51354 2.46034,1.23448 5.78098,5.08142 8.9467,4.48903 3.16572,-0.59239 4.53225,-5.00596 6.25137,-6.90477 1.71913,-1.89881 5.96385,-6.37493 7.46709,-9.14504 1.50324,-2.77011 -11.21861,-9.94275 -27.61185,-15.77575 -16.39323,-5.833 -19.2,-6.85798 -28,-10.0213 -8.8,-3.16332 -20.725,-7.42896 -26.5,-9.47923 -5.775,-2.05027 -11.75734,-4.23168 -13.2941,-4.84761 -1.53676,-0.61593 -4.01175,-1.41067 -5.5,-1.76611 -1.48825,-0.35544 -3.15441,-0.92152 -3.70259,-1.25798 -0.54818,-0.33646 -2.36978,-1.10831 -7.90954,-3.11174 -5.53976,-2.00342 -9.62512,-5.36865 -7.87764,-7.11613 1.74747,-1.74747 5.22836,-0.58659 27.78387,5.5842 22.55551,6.1708 30.65948,8.35753 35.5,9.55858 4.84052,1.20105 10.92218,2.73409 25.5,6.8485 14.57782,4.11442 41.45455,11.35627 42.87896,10.80967 1.42442,-0.5466 6.13282,-10.76609 7.04232,-15.90576 0.90951,-5.13967 -9.39578,-5.75933 -29.42127,-8.85905 -20.0255,-3.09972 -14.40001,-2.24394 -15.50001,-2.43253 -1.1,-0.18859 -5.63515,-0.89556 -15.5,-2.39537 -9.86484,-1.4998 -30.83759,-4.83973 -57.5,-9.14511 -26.66242,-4.30538 -19.09469,-4.45771 -17.66415,-6.71411 1.43054,-2.2564 24.12607,0.15471 62.66415,2.72292 38.53808,2.56821 52.11251,3.43504 60.50001,3.97966 8.3875,0.54462 25.27853,4.11233 30.50001,1.98044 5.22149,-2.13189 0.20447,-0.22815 2.18592,-2.43922 1.98145,-2.21106 3.22592,-19.17979 0.50927,-22.39974 -2.71665,-3.21995 -6.79387,-1.67594 -23.6952,-0.57109 -16.90133,1.10485 -27.4,1.90401 -34.00001,2.47339 -6.6,0.56938 -23.025,1.71985 -36.5,2.55659 -13.475,0.83674 -26.525,1.70789 -29,1.93588 -2.475,0.22799 -9.45,0.69173 -15.5,1.03055 -6.05,0.33882 -11.09175,0.63445 -13.08831,1.03535 -1.99656,0.4009 -6.25209,-2.05735 -4.78395,-3.54804 1.46813,-1.49069 9.9809,-3.1631 20.87226,-4.97015 10.89136,-1.80705 13.125,-2.22661 14.5,-2.5146 1.375,-0.28799 8.125,-1.45482 15,-2.59296 6.875,-1.13814 17.45,-2.91452 23.5,-3.9475 6.05,-1.03298 17.525,-2.96993 25.5,-4.30434 7.97501,-1.33441 19.22501,-3.22278 25.00001,-4.19638 5.775,-0.9736 10.66449,-1.8972 11.68224,-2.68312 1.01775,-0.78592 -0.63355,-7.70354 -3.64765,-14.04026 -3.0141,-6.33672 -5.25205,-6.42092 -9.30307,-5.40883 -4.05102,1.0121 -18.62282,4.95623 -24.23153,6.52105 -5.6087,1.56482 -11.95,3.31978 -18,4.99032 -6.05,1.67054 -13.25,3.69075 -16,4.48936 -2.75,0.79861 -9.00185,2.52532 -24,6.54779 -14.99815,4.02248 -28.03976,7.6594 -34.87194,9.7498 -6.83218,2.0904 -7.62806,0.84795 -7.62806,-0.98443 0,-1.83238 5.84935,-4.23482 9,-5.14532 3.15065,-0.9105 3.85,-1.32792 5.5,-2.06792 1.65,-0.74 13.8,-5.20897 27,-9.93105 13.2,-4.72208 24.9,-9.00851 26,-9.5254 1.1,-0.51689 7.06045,-2.76167 24.5,-9.0403 17.43957,-6.278631 27.00001,-10.449941 27.00001,-11.990501 0,-1.54056 -10.71122,-16.64832 -12.13424,-17.5278 -1.42302,-0.87947 -14.60918,5.2895 -41.86577,18.10647 -27.25659,12.816971 -41.37035,20.318971 -54,27.378191 -12.62965,7.05923 -16.22471,8.33002 -16.96275,7.14606 -0.73804,-1.18396 -0.74936,-1.70455 -0.38049,-2.30139 0.36887,-0.59684 30.06847,-20.31396 36.34324,-24.248321 6.27477,-3.93436 5.975,-3.77103 9,-5.69785 3.025,-1.92682 2.74485,-1.79682 23,-14.34249 20.25515,-12.54566 27.74292,-21.05389 21.06169,-24.42656 -6.68122,-3.37267 -9.68307,-4.48774 -11.05535,-5.02864 -1.37228,-0.5409 -2.35704,-2.37081 -4.9901,-1.96691 -2.63305,0.4039 -5.98714,4.84039 -8.25812,6.6764 -2.27098,1.83601 -8.48312,6.95602 -8.75812,7.29779 -0.275,0.34177 -7.25,6.14125 -15.5,12.88775 -8.25,6.7465 -17.25,14.18974 -20,16.54055 -2.75,2.35081 -8.08103,6.78823 -16.20609,13.418061 -8.12506,6.62983 -13.29391,9.82611 -13.29391,8.57404 0,-1.25206 6.128,-9.2253 8.18444,-11.567422 2.05644,-2.342119 3.66556,-4.339689 5.31556,-6.420459 1.65,-2.08077 3.00363,-3.78774 17,-21.23758 13.99637,-17.44983 26.68777,-33.09834 26.16955,-34.70472 -0.51822,-1.60638 -7.57517,-3.67815 -16.02404,-3.31411 -8.44887,0.36404 -6.90116,-2.12333 -20.11214,17.31411 -13.21098,19.43744 -22.82476,33.34506 -23.78775,34.52074 -0.96299,1.17568 -4.3684,6.12391 -8.18513,11.75 -3.81673,5.626091 -7.55218,10.229261 -8.30102,10.229261 -0.74883,0 -1.94797,-1.4625 -2.66474,-3.25 -0.71677,-1.7875 -1.64337,-4.12034 -6.09329,-15.506231 -4.44992,-11.3859 -6.87657,-15.91218 -10.68509,-14.09602 -3.80852,1.81616 -9.81635,6.90109 -9.81635,7.50576 0,0.60467 0.86511,2.58415 1.92249,5.16111 z"
     id="path3049"
     style="fill:#ffff00;stroke:none" />
</svg>
